<svg width="64" height="64" viewBox="0 0 64 64" fill="none" xmlns="http://www.w3.org/2000/svg">


    
<g id="blink" opacity="1">
  
  <path d="M31.7466 64C31.7466 46.3289 36.4091 32 42.1596 32C36.4091 32 31.7466 17.6711 31.7466 0C31.7466 17.6711 27.0852 32 21.3347 32C27.0852 32 31.7466 46.3289 31.7466 64Z" fill="#C2B8FF"/>
<path d="M0 31.738C17.6735 31.738 32 36.4075 32 42.1557C32 36.4075 46.3265 31.738 64 31.738C46.3265 31.738 32 27.0802 32 21.332C32 27.0802 17.6735 31.738 0 31.738Z" fill="#C2B8FF"/>
<path d="M31.9999 47.2408C31.9999 38.826 38.823 31.9993 47.2378 31.9993C38.823 31.9993 31.9999 25.1726 31.9999 16.7578C31.9999 25.1726 25.178 31.9993 16.762 31.9993C25.178 31.9993 31.9999 38.826 31.9999 47.2408Z" fill="white"/>

    <animate
    attributeName="opacity"
    dur="1.5s"
    values="0.5;1;0.5"
    repeatCount="indefinite" />
</g>

</svg>
