<svg width="155" height="217" viewBox="0 0 155 217" fill="none" xmlns="http://www.w3.org/2000/svg">


    
<g id="blink" opacity="1">
  
  <path d="M36.707 74C36.707 53.5678 42.0979 37 48.747 37C42.0979 37 36.707 20.4322 36.707 0C36.707 20.4322 31.3172 37 24.6682 37C31.3172 37 36.707 53.5678 36.707 74Z" fill="#C2B8FF"/>
<path d="M0 36.696C20.435 36.696 37 42.0951 37 48.7414C37 42.0951 53.565 36.696 74 36.696C53.565 36.696 37 31.3104 37 24.6641C37 31.3104 20.435 36.696 0 36.696Z" fill="#C2B8FF"/>
<path d="M36.9997 54.6249C36.9997 44.8952 44.8889 37.0019 54.6185 37.0019C44.8889 37.0019 36.9997 29.1085 36.9997 19.3789C36.9997 29.1085 29.1119 37.0019 19.3809 37.0019C29.1119 37.0019 36.9997 44.8952 36.9997 54.6249Z" fill="white"/>
<path d="M130.814 217C130.814 204.023 134.238 193.5 138.461 193.5C134.238 193.5 130.814 182.977 130.814 170C130.814 182.977 127.391 193.5 123.167 193.5C127.391 193.5 130.814 204.023 130.814 217Z" fill="#C2B8FF"/>
<path d="M107.5 193.306C120.479 193.306 131 196.735 131 200.956C131 196.735 141.521 193.306 154.5 193.306C141.521 193.306 131 189.885 131 185.664C131 189.885 120.479 193.306 107.5 193.306Z" fill="#C2B8FF"/>
<path d="M131 204.695C131 198.515 136.011 193.502 142.19 193.502C136.011 193.502 131 188.488 131 182.309C131 188.488 125.99 193.502 119.81 193.502C125.99 193.502 131 198.515 131 204.695Z" fill="white"/>

    <animate
    attributeName="opacity"
    dur="1.5s"
    values="0.5;1;0.5"
    repeatCount="indefinite" />
</g>

</svg>
