<svg width="197" height="143" viewBox="0 0 197 143" fill="none" xmlns="http://www.w3.org/2000/svg">


    
<g id="blink" opacity="1">
  
  <path d="M36.707 143C36.707 122.568 42.0979 106 48.747 106C42.0979 106 36.707 89.4322 36.707 69C36.707 89.4322 31.3172 106 24.6682 106C31.3172 106 36.707 122.568 36.707 143Z" fill="#C2B8FF"/>
<path d="M0 105.696C20.435 105.696 37 111.095 37 117.741C37 111.095 53.565 105.696 74 105.696C53.565 105.696 37 100.31 37 93.6641C37 100.31 20.435 105.696 0 105.696Z" fill="#C2B8FF"/>
<path d="M36.9997 123.625C36.9997 113.895 44.8889 106.002 54.6185 106.002C44.8889 106.002 36.9997 98.1085 36.9997 88.3789C36.9997 98.1085 29.1119 106.002 19.3809 106.002C29.1119 106.002 36.9997 113.895 36.9997 123.625Z" fill="white"/>
<path d="M173.314 47C173.314 34.0228 176.738 23.5 180.961 23.5C176.738 23.5 173.314 12.9772 173.314 0C173.314 12.9772 169.891 23.5 165.667 23.5C169.891 23.5 173.314 34.0228 173.314 47Z" fill="#C2B8FF"/>
<path d="M150 23.3059C162.979 23.3059 173.5 26.7351 173.5 30.9564C173.5 26.7351 184.021 23.3059 197 23.3059C184.021 23.3059 173.5 19.8854 173.5 15.6641C173.5 19.8854 162.979 23.3059 150 23.3059Z" fill="#C2B8FF"/>
<path d="M173.5 34.6945C173.5 28.5149 178.511 23.5016 184.69 23.5016C178.511 23.5016 173.5 18.4882 173.5 12.3086C173.5 18.4882 168.49 23.5016 162.31 23.5016C168.49 23.5016 173.5 28.5149 173.5 34.6945Z" fill="white"/>

    <animate
    attributeName="opacity"
    dur="1.5s"
    values="0.5;1;0.5"
    repeatCount="indefinite" />
</g>

</svg>
