<svg width="144" height="144" viewBox="0 0 144 144" fill="none" xmlns="http://www.w3.org/2000/svg">


    
<g id="blink" opacity="1">
  
  <path d="M71.4297 144C71.4297 104.24 81.9202 72 94.8589 72C81.9202 72 71.4297 39.76 71.4297 0C71.4297 39.76 60.9416 72 48.0029 72C60.9416 72 71.4297 104.24 71.4297 144Z" fill="#C2B8FF"/>
<path d="M0 71.4095C39.7653 71.4095 72 81.9159 72 94.8493C72 81.9159 104.235 71.4095 144 71.4095C104.235 71.4095 72 60.9294 72 47.9961C72 60.9294 39.7653 71.4095 0 71.4095Z" fill="#C2B8FF"/>
<path d="M71.9997 106.294C71.9997 87.3604 87.3517 72.0005 106.285 72.0005C87.3517 72.0005 71.9997 56.6404 71.9997 37.707C71.9997 56.6404 56.6504 72.0005 37.7144 72.0005C56.6504 72.0005 71.9997 87.3604 71.9997 106.294Z" fill="white"/>

    <animate
    attributeName="opacity"
    dur="1.5s"
    values="0.5;1;0.5"
    repeatCount="indefinite" />
</g>

</svg>
